<?xml version="1.0" encoding="utf-8"?>
<!-- Generator: Adobe Illustrator 16.0.4, SVG Export Plug-In . SVG Version: 6.00 Build 0)  -->
<!DOCTYPE svg PUBLIC "-//W3C//DTD SVG 1.1//EN" "http://www.w3.org/Graphics/SVG/1.1/DTD/svg11.dtd">
<svg version="1.1" id="Layer_1" xmlns="http://www.w3.org/2000/svg" xmlns:xlink="http://www.w3.org/1999/xlink" x="0px" y="0px"
	 width="158.74px" height="39.69px" viewBox="0 0 158.74 39.69" enable-background="new 0 0 158.74 39.69" xml:space="preserve">
<g>
	<path fill="#FFFFFF" d="M19.778,1.144c-10.484,0-18.983,8.499-18.983,18.982s8.499,18.982,18.983,18.982
		c10.483,0,18.981-8.499,18.981-18.982S30.261,1.144,19.778,1.144z M19.778,31.571c-6.321,0-11.447-5.125-11.447-11.447
		c0-6.321,5.125-11.446,11.447-11.446s11.445,5.125,11.445,11.446C31.223,26.446,26.099,31.571,19.778,31.571z"/>
	<path fill="#FFFFFF" d="M59.902,1.144c-10.484,0-18.981,8.499-18.981,18.982v16.943h0.029c0,0.951,1.67,1.723,3.732,1.723
		s3.732-0.771,3.732-1.723h0.042V20.126l-0.001-0.002h0.001c0-6.321,5.124-11.446,11.446-11.446c6.322,0,11.447,5.125,11.447,11.446
		l0,0v0.002v16.943h0.042c0,0.951,1.669,1.723,3.732,1.723c2.06,0,3.732-0.771,3.732-1.723h0.029V20.126
		C78.884,9.643,70.385,1.144,59.902,1.144z"/>
	<path fill="#FFFFFF" d="M100.809,1.144c-10.485,0-18.982,8.499-18.982,18.982v16.943h0.03c0,0.951,1.671,1.723,3.73,1.723
		c2.063,0,3.732-0.771,3.732-1.723h0.042V20.126v-0.002c0-6.321,5.126-11.446,11.447-11.446c6.322,0,11.445,5.125,11.445,11.446
		v0.002v16.943h0.043c0,0.951,1.67,1.723,3.731,1.723c2.061,0,3.732-0.771,3.732-1.723h0.03V20.126
		C119.791,9.643,111.293,1.144,100.809,1.144z"/>
	<path fill="#FFFFFF" d="M133.991,16.771c-1.941,0-3.514,1.573-3.514,3.516c0,1.939,1.572,3.512,3.514,3.512
		c0.153,0,0.304-0.013,0.452-0.031h18.572c2.983,0,5.4-2.42,5.4-5.401c0-0.279-0.021-0.553-0.062-0.82
		c-0.021-0.141-0.049-0.282-0.081-0.42c-0.017-0.072-0.041-0.14-0.059-0.209c-1.947-8.102-9.235-14.122-17.935-14.122
		c-10.188,0-18.448,8.258-18.448,18.448c0,10.188,8.261,18.448,18.448,18.448c6.216,0,11.712-3.074,15.055-7.782l0.012-0.041
		c0.436-0.596,0.694-1.33,0.694-2.121c0-2.009-1.646-3.636-3.672-3.636c-1.269,0-2.384,0.638-3.044,1.604l-0.063,0.093
		c-2.023,2.764-5.293,4.56-8.981,4.56c-6.144,0-11.124-4.981-11.124-11.124c0-6.144,4.98-11.125,11.124-11.125
		c4.557,0,8.47,2.739,10.191,6.657h-16.408C134.04,16.774,134.015,16.771,133.991,16.771z"/>
</g>
</svg>
